<svg xmlns="http://www.w3.org/2000/svg" viewBox="0 0 260 64" role="img" aria-labelledby="title desc">
  <title id="title">B-SMART Business OS</title>
  <desc id="desc">B-SMART logo with a connected growth mark</desc>
  <defs><linearGradient id="g" x1="8" y1="56" x2="56" y2="8" gradientUnits="userSpaceOnUse"><stop stop-color="#075d3d"/><stop offset="1" stop-color="#18b875"/></linearGradient></defs>
  <rect x="2" y="2" width="60" height="60" rx="18" fill="url(#g)"/>
  <path d="M20 17v30h13.5c7 0 11.5-3.6 11.5-9 0-3.7-2.2-6.4-5.8-7.6 2.8-1.3 4.4-3.5 4.4-6.3 0-4.5-3.8-7.1-10-7.1H20Zm8 6h5c2 0 3.2.9 3.2 2.5S35 28 33 28h-5v-5Zm0 11h5.8c2.4 0 3.8 1.1 3.8 3s-1.4 3-3.8 3H28v-6Z" fill="#fff"/>
  <path d="m34.5 35.5 6.2-6.2 4 3.6L52 24M46.5 24H52v5.5" fill="none" stroke="#bdf5d8" stroke-width="3.2" stroke-linecap="round" stroke-linejoin="round"/>
  <text x="78" y="36" fill="#10231c" font-family="Inter,Segoe UI,Arial,sans-serif" font-size="27" font-weight="800" letter-spacing=".8">B-SMART</text>
  <text x="80" y="51" fill="#5d6e67" font-family="Inter,Segoe UI,Arial,sans-serif" font-size="9" font-weight="700" letter-spacing="2.3">BUSINESS OS</text>
</svg>
